HIERARCHY
ROOT Hips
{
	OFFSET 0.000000 103.266502 0.000000
	CHANNELS 6 Xposition Yposition Zposition Xrotation Yrotation Zrotation 
	JOINT Spine
	{
		OFFSET -0.002400 12.777504 0.315300
		CHANNELS 3 Xrotation Yrotation Zrotation
		JOINT Spine1
		{
			OFFSET -0.002067 5.816869 0.032633
			CHANNELS 3 Xrotation Yrotation Zrotation
			JOINT Spine1_split
			{
				OFFSET -0.002067 5.816869 0.032633
				CHANNELS 3 Xrotation Yrotation Zrotation
				JOINT Spine2
				{
					OFFSET -0.002067 5.816869 0.032633
					CHANNELS 3 Xrotation Yrotation Zrotation
					JOINT Neck
					{
						OFFSET -0.003700 21.199493 -0.826900
						CHANNELS 3 Xrotation Yrotation Zrotation
						JOINT Head
						{
							OFFSET 0.000000 20.442200 4.834800
							CHANNELS 3 Xrotation Yrotation Zrotation
							JOINT HeadTop_End
							{
								OFFSET 0.000000 34.668396 4.968400
								CHANNELS 3 Xrotation Yrotation Zrotation
								End Site
								{
									OFFSET 0.000000 0.000000 0.000000
								}
							}
						}
					}
					JOINT LeftShoulder
					{
						OFFSET 3.288150 8.794197 -1.372250
						CHANNELS 3 Xrotation Yrotation Zrotation
						JOINT LeftShoulder_split
						{
							OFFSET 3.288150 8.794197 -1.372250
							CHANNELS 3 Xrotation Yrotation Zrotation
							JOINT LeftArm
							{
								OFFSET 11.953299 -2.279007 -0.146200
								CHANNELS 3 Xrotation Yrotation Zrotation
								JOINT LeftForeArm
								{
									OFFSET 18.448900 0.000000 0.000000
									CHANNELS 3 Xrotation Yrotation Zrotation
									JOINT LeftHand
									{
										OFFSET 29.527798 0.000000 0.000000
										CHANNELS 3 Xrotation Yrotation Zrotation
										JOINT LeftHandThumb1
										{
											OFFSET 10.739754 -2.369614 9.225399
											CHANNELS 3 Xrotation Yrotation Zrotation
											JOINT LeftHandThumb2
											{
												OFFSET 4.926170 -2.844131 2.844125
												CHANNELS 3 Xrotation Yrotation Zrotation
												JOINT LeftHandThumb3
												{
													OFFSET 4.614891 -2.664413 2.664409
													CHANNELS 3 Xrotation Yrotation Zrotation
													JOINT LeftHandThumb4
													{
														OFFSET 4.432465 -2.559082 2.559083
														CHANNELS 3 Xrotation Yrotation Zrotation
														End Site
														{
															OFFSET 0.000000 0.000000 0.000000
														}
													}
												}
											}
										}
										JOINT LeftHandIndex1
										{
											OFFSET 26.467674 0.187653 6.405298
											CHANNELS 3 Xrotation Yrotation Zrotation
											JOINT LeftHandIndex2
											{
												OFFSET 8.792900 0.000000 0.000000
												CHANNELS 3 Xrotation Yrotation Zrotation
												JOINT LeftHandIndex3
												{
													OFFSET 10.075203 0.000000 0.000000
													CHANNELS 3 Xrotation Yrotation Zrotation
													End Site
													{
														OFFSET 0.000000 0.000000 0.000000
													}
												}
											}
										}
										JOINT LeftHandMiddle1
										{
											OFFSET 25.764404 0.000000 0.000000
											CHANNELS 3 Xrotation Yrotation Zrotation
											JOINT LeftHandMiddle2
											{
												OFFSET 9.393974 0.000000 0.000000
												CHANNELS 3 Xrotation Yrotation Zrotation
												JOINT LeftHandMiddle3
												{
													OFFSET 10.771950 0.000000 0.000000
													CHANNELS 3 Xrotation Yrotation Zrotation
													End Site
													{
														OFFSET 0.000000 0.000000 0.000000
													}
												}
											}
										}
										JOINT LeftHandRing1
										{
											OFFSET 24.660927 0.144547 -6.225808
											CHANNELS 3 Xrotation Yrotation Zrotation
											JOINT LeftHandRing2
											{
												OFFSET 9.393799 0.000000 0.000000
												CHANNELS 3 Xrotation Yrotation Zrotation
												JOINT LeftHandRing3
												{
													OFFSET 9.928497 0.000000 0.000000
													CHANNELS 3 Xrotation Yrotation Zrotation
													End Site
													{
														OFFSET 0.000000 0.000000 0.000000
													}
												}
											}
										}
										JOINT LeftHandPinky1
										{
											OFFSET 23.655350 0.125290 -12.815412
											CHANNELS 3 Xrotation Yrotation Zrotation
											JOINT LeftHandPinky2
											{
												OFFSET 8.425102 0.000000 0.000000
												CHANNELS 3 Xrotation Yrotation Zrotation
												JOINT LeftHandPinky3
												{
													OFFSET 8.147003 0.000000 0.000000
													CHANNELS 3 Xrotation Yrotation Zrotation
													End Site
													{
														OFFSET 0.000000 0.000000 0.000000
													}
												}
											}
										}
									}
								}
							}
						}
					}
					JOINT RightShoulder
					{
						OFFSET -3.249400 8.794197 -1.372250
						CHANNELS 3 Xrotation Yrotation Zrotation
						JOINT RightShoulder_split
						{
							OFFSET -3.249400 8.794197 -1.372250
							CHANNELS 3 Xrotation Yrotation Zrotation
							JOINT RightArm
							{
								OFFSET -11.953299 -2.279007 -0.146200
								CHANNELS 3 Xrotation Yrotation Zrotation
								JOINT RightForeArm
								{
									OFFSET -18.448900 0.000000 0.000000
									CHANNELS 3 Xrotation Yrotation Zrotation
									JOINT RightHand
									{
										OFFSET -29.527802 0.000000 0.000000
										CHANNELS 3 Xrotation Yrotation Zrotation
										JOINT RightHandThumb1
										{
											OFFSET -10.739754 -2.369614 9.225399
											CHANNELS 3 Xrotation Yrotation Zrotation
											JOINT RightHandThumb2
											{
												OFFSET -4.926170 -2.844131 2.844125
												CHANNELS 3 Xrotation Yrotation Zrotation
												JOINT RightHandThumb3
												{
													OFFSET -4.614891 -2.664413 2.664409
													CHANNELS 3 Xrotation Yrotation Zrotation
													JOINT RightHandThumb4
													{
														OFFSET -4.432465 -2.559082 2.559083
														CHANNELS 3 Xrotation Yrotation Zrotation
														End Site
														{
															OFFSET 0.000000 0.000000 0.000000
														}
													}
												}
											}
										}
										JOINT RightHandIndex1
										{
											OFFSET -26.467674 0.187653 6.405298
											CHANNELS 3 Xrotation Yrotation Zrotation
											JOINT RightHandIndex2
											{
												OFFSET -8.792900 0.000000 0.000000
												CHANNELS 3 Xrotation Yrotation Zrotation
												JOINT RightHandIndex3
												{
													OFFSET -10.075203 0.000000 0.000000
													CHANNELS 3 Xrotation Yrotation Zrotation
													End Site
													{
														OFFSET 0.000000 0.000000 0.000000
													}
												}
											}
										}
										JOINT RightHandMiddle1
										{
											OFFSET -25.764404 0.000000 0.000000
											CHANNELS 3 Xrotation Yrotation Zrotation
											JOINT RightHandMiddle2
											{
												OFFSET -9.393974 0.000000 0.000000
												CHANNELS 3 Xrotation Yrotation Zrotation
												JOINT RightHandMiddle3
												{
													OFFSET -10.771950 0.000000 0.000000
													CHANNELS 3 Xrotation Yrotation Zrotation
													End Site
													{
														OFFSET 0.000000 0.000000 0.000000
													}
												}
											}
										}
										JOINT RightHandRing1
										{
											OFFSET -24.660927 0.144547 -6.225808
											CHANNELS 3 Xrotation Yrotation Zrotation
											JOINT RightHandRing2
											{
												OFFSET -9.393799 0.000000 0.000000
												CHANNELS 3 Xrotation Yrotation Zrotation
												JOINT RightHandRing3
												{
													OFFSET -9.928497 0.000000 0.000000
													CHANNELS 3 Xrotation Yrotation Zrotation
													End Site
													{
														OFFSET 0.000000 0.000000 0.000000
													}
												}
											}
										}
										JOINT RightHandPinky1
										{
											OFFSET -23.655350 0.125290 -12.815412
											CHANNELS 3 Xrotation Yrotation Zrotation
											JOINT RightHandPinky2
											{
												OFFSET -8.425102 0.000000 0.000000
												CHANNELS 3 Xrotation Yrotation Zrotation
												JOINT RightHandPinky3
												{
													OFFSET -8.147003 0.000000 0.000000
													CHANNELS 3 Xrotation Yrotation Zrotation
													End Site
													{
														OFFSET 0.000000 0.000000 0.000000
													}
												}
											}
										}
									}
								}
							}
						}
					}
				}
			}
		}
	}
	JOINT LeftUpLeg
	{
		OFFSET 11.394100 -6.187798 -0.413800
		CHANNELS 3 Xrotation Yrotation Zrotation
		JOINT LeftLeg
		{
			OFFSET 0.430247 -32.302673 3.732800
			CHANNELS 3 Xrotation Yrotation Zrotation
			JOINT LeftFoot
			{
				OFFSET -0.430247 -48.264931 -6.423300
				CHANNELS 3 Xrotation Yrotation Zrotation
				JOINT LeftToeBase
				{
					OFFSET 4.230900 -16.068199 23.438400
					CHANNELS 3 Xrotation Yrotation Zrotation
					JOINT LeftToe_End
					{
						OFFSET 4.510700 0.695400 19.974600
						CHANNELS 3 Xrotation Yrotation Zrotation
						End Site
						{
							OFFSET 0.000000 0.000000 0.000000
						}
					}
				}
			}
		}
	}
	JOINT RightUpLeg
	{
		OFFSET -11.333700 -6.187798 -0.413800
		CHANNELS 3 Xrotation Yrotation Zrotation
		JOINT RightLeg
		{
			OFFSET -0.430392 -32.302628 3.733000
			CHANNELS 3 Xrotation Yrotation Zrotation
			JOINT RightFoot
			{
				OFFSET 0.430392 -48.264973 -6.423500
				CHANNELS 3 Xrotation Yrotation Zrotation
				JOINT RightToeBase
				{
					OFFSET -4.230900 -16.068199 23.438400
					CHANNELS 3 Xrotation Yrotation Zrotation
					JOINT RightToe_End
					{
						OFFSET -4.510700 0.695400 19.974600
						CHANNELS 3 Xrotation Yrotation Zrotation
						End Site
						{
							OFFSET 0.000000 0.000000 0.000000
						}
					}
				}
			}
		}
	}
}
MOTION
Frames: 6
Frame Time: 0.016667
-129.645615 39.347733 4.285477 4.379881 1.706170 -42.854775 26.961868 -1.461548 -11.179618 4.579546 1.205238 -2.831993 0.000000 0.000000 0.000000 4.490621 1.286413 -2.943284 -2.042143 1.139530 0.937724 -3.993390 18.457113 0.270723 0.000001 -0.000001 0.000003 -1.373415 -20.809896 -17.189984 0.000000 0.000000 0.000000 -48.855322 35.869097 -5.133206 -0.000029 -67.519562 -0.000038 -8.667143 25.097322 88.863520 -18.674851 -12.715917 12.000660 5.781728 26.667881 7.360266 -10.020026 -14.017845 7.739307 0.000004 0.000001 0.000004 -0.114402 -6.949164 -4.727150 -0.000000 0.000002 0.000000 -0.000000 -0.000000 0.000000 0.098865 -2.457606 0.172479 0.069073 0.897932 -8.797573 -0.000000 0.000001 -0.000001 0.130748 1.053436 3.316422 0.099481 1.076168 -10.562550 0.000000 -0.000001 0.000000 -1.043233 17.733034 -1.993049 0.000108 0.035385 -0.345394 -0.000000 -0.000002 -0.000001 0.401295 16.298356 -0.998276 0.000000 0.000000 0.000000 -40.005244 -32.703963 -10.775230 0.000013 46.721537 -0.000015 -50.663881 -2.035178 11.091338 -36.432854 17.171413 -23.039145 7.506152 -18.062857 -3.520396 -7.056233 3.101005 -14.195944 -0.000000 -0.000001 0.000000 0.815363 4.038547 -1.787531 -0.000000 0.000001 -0.000001 0.000001 0.000001 -0.000001 0.053657 -1.961522 -1.170902 -0.000001 -0.001794 0.022154 0.000001 -0.000002 -0.000004 0.143737 -11.067576 0.271831 -0.000004 -0.000000 0.000006 -0.000002 0.000004 0.000000 -0.350066 -18.063091 -1.651676 0.001511 -0.118487 1.454589 -0.000002 0.000001 0.000003 -115.206030 -2.350587 6.782565 25.947484 -0.691325 3.060540 30.623273 -11.724133 41.036811 -7.908849 -0.000005 0.000002 0.000005 -0.000001 -0.000001 -133.265624 6.946208 -30.611494 132.814709 10.426127 0.562440 25.239542 30.832099 16.190128 -41.084199 -0.000007 -0.000004 -0.000001 -0.000000 -0.000000 
-129.046204 40.446823 2.997053 4.227628 1.548130 -43.671024 26.457911 -2.229300 -11.763218 4.544304 1.067064 -3.000542 0.000000 0.000000 0.000000 4.469504 1.152594 -3.102246 -2.049338 1.250611 0.923233 -3.430783 19.437303 0.140229 0.000001 -0.000001 0.000002 -0.738563 -20.006918 -16.433095 0.000000 0.000000 0.000000 -50.129251 35.122260 -5.603044 0.000018 -67.864281 0.000045 -7.308380 26.200073 89.911654 -18.673706 -12.714353 12.002647 5.779681 26.667113 7.363962 -10.020030 -14.017845 7.739307 0.000003 0.000002 0.000003 -0.114869 -6.948376 -4.729058 0.000000 -0.000002 -0.000003 0.000000 -0.000001 -0.000000 0.098905 -2.457263 0.173013 0.068625 0.895024 -8.768869 -0.000000 -0.000000 0.000000 0.130717 1.054168 3.317228 0.098834 1.072692 -10.528035 0.000000 0.000002 -0.000001 -1.043699 17.733739 -1.992102 0.000106 0.035305 -0.344535 -0.000000 -0.000003 0.000000 0.572112 17.177620 -1.647733 0.000000 0.000000 0.000000 -40.220675 -36.620558 -13.906571 0.000004 47.792845 -0.000000 -49.852676 -3.546381 10.728621 -36.512566 17.028148 -23.229349 7.528403 -18.244779 -3.533560 -7.056234 3.101003 -14.195944 -0.000000 -0.000002 0.000000 0.824675 4.106025 -1.666734 0.000003 -0.000001 0.000035 -0.000001 -0.000000 0.000001 0.055113 -1.872154 -1.095911 0.000006 -0.001842 0.022641 0.000002 0.000001 0.000000 0.147331 -10.931690 0.311338 -0.000005 0.000001 0.000008 -0.000000 0.000000 -0.000004 -0.366991 -18.002625 -1.683542 0.001716 -0.126632 1.554747 0.000001 0.000000 0.000002 -111.651559 -1.887851 6.974442 21.467969 -2.173146 3.037413 33.527647 -10.392331 40.930161 -8.731659 -0.000012 -0.000005 0.000002 -0.000001 -0.000000 -129.524880 2.724532 -30.688877 129.573060 9.127382 0.253012 22.625155 30.635465 16.363982 -39.838752 0.000001 0.000002 -0.000001 0.000000 -0.000000 
-128.454498 41.735123 2.052054 4.862440 1.365073 -44.479640 25.922388 -3.041998 -12.053453 4.488217 0.843236 -3.085122 0.000000 0.000000 0.000000 4.437024 0.931095 -3.173848 -2.023573 1.363336 0.939924 -3.072389 20.274373 0.360030 -0.000000 0.000000 -0.000001 -0.122292 -19.220885 -15.638249 0.000000 0.000000 0.000000 -51.499442 33.851630 -6.175571 0.000030 -67.064951 0.000047 -6.088713 26.491497 90.582358 -18.672545 -12.713409 12.004483 5.777680 26.666355 7.367558 -10.020028 -14.017846 7.739306 0.000002 0.000001 0.000004 -0.115385 -6.947560 -4.731091 0.000001 -0.000003 0.000001 0.000000 -0.000001 0.000000 0.098950 -2.456934 0.173603 0.068520 0.894341 -8.762170 -0.000000 -0.000000 0.000000 0.130688 1.054914 3.318095 0.098681 1.071880 -10.519943 0.000000 0.000001 -0.000000 -1.044125 17.734284 -1.991124 0.000105 0.035238 -0.343835 -0.000001 -0.000001 -0.000000 0.605477 17.139989 -2.151164 0.000000 0.000000 0.000000 -40.578492 -39.839322 -15.876081 0.000020 48.762445 -0.000020 -48.772468 -4.582362 9.448626 -36.561986 16.901337 -23.361322 7.551327 -18.432398 -3.547099 -7.056235 3.101002 -14.195945 -0.000000 -0.000000 -0.000000 0.833843 4.174742 -1.543923 0.000001 0.000000 0.000027 0.000001 0.000000 -0.000001 0.056357 -1.781221 -1.019677 -0.000001 -0.001913 0.023243 0.000000 -0.000000 0.000004 0.150810 -10.793499 0.351490 -0.000000 0.000000 0.000064 -0.000003 0.000001 -0.000002 -0.384129 -17.941102 -1.715901 0.001948 -0.134934 1.656610 0.000001 0.000000 0.000001 -112.565445 -1.945102 6.733541 24.187121 -1.780118 2.536972 32.231721 -9.975506 42.030737 -9.310724 -0.000017 0.000004 -0.000003 0.000003 0.000000 -126.144660 -1.052180 -30.417865 126.540251 8.322912 0.056034 19.109140 30.382129 16.965346 -38.670106 -0.000000 0.000003 -0.000000 -0.000000 -0.000000 
-127.879143 43.280823 1.292859 5.861649 1.114310 -45.593377 25.476787 -3.883849 -12.056944 4.429980 0.562698 -3.087449 0.000000 0.000000 0.000000 4.399094 0.647815 -3.172075 -1.978521 1.469745 0.973256 -2.886842 20.911707 0.815777 0.000001 0.000001 0.000001 0.465873 -18.467177 -14.809602 0.000000 0.000000 0.000000 -53.117326 32.371029 -6.476305 0.000041 -65.498242 0.000052 -5.129250 26.194769 91.077233 -18.671406 -12.712501 12.006317 5.775783 26.665629 7.371040 -10.020028 -14.017847 7.739305 0.000002 0.000001 0.000000 -0.115932 -6.946746 -4.733157 0.000000 0.000001 -0.000000 0.000000 -0.000001 -0.000000 0.098998 -2.456619 0.174216 0.068641 0.895127 -8.769936 -0.000001 0.000001 0.000000 0.130658 1.055653 3.318956 0.098856 1.072810 -10.529234 0.000000 0.000001 -0.000000 -1.044497 17.734537 -1.990186 0.000105 0.035166 -0.343287 0.000000 -0.000001 0.000000 0.420652 16.309590 -2.316474 0.000000 0.000000 0.000000 -40.918553 -42.271160 -17.103678 0.000015 49.709799 -0.000035 -47.434769 -5.281591 7.361198 -36.582155 16.789729 -23.436778 7.574902 -18.625461 -3.560980 -7.056233 3.101002 -14.195942 0.000000 -0.000000 -0.000000 0.842841 4.244613 -1.419231 -0.000003 -0.000011 0.000011 -0.000001 0.000000 -0.000001 0.057376 -1.688871 -0.942288 -0.000000 -0.001954 0.023984 -0.000000 -0.000002 -0.000001 0.154176 -10.653135 0.392194 0.000002 -0.000004 0.000000 0.000002 -0.000003 -0.000000 -0.401476 -17.878582 -1.748773 0.002207 -0.143362 1.760087 0.000002 0.000002 0.000000 -116.784938 -2.491273 6.375038 32.551203 -0.145571 1.771586 27.868651 -10.189480 44.115987 -9.566004 -0.000011 -0.000008 -0.000000 0.000000 -0.000000 -122.682874 -5.126711 -29.939841 123.315568 7.861649 -0.025605 15.172995 30.081782 17.555273 -37.575466 -0.000006 0.000004 -0.000001 -0.000000 -0.000000 
-127.307869 44.954536 0.593980 6.923551 0.750330 -47.075781 25.180969 -4.720048 -11.834366 4.380748 0.257268 -3.026148 0.000000 0.000000 0.000000 4.361409 0.331583 -3.128188 -1.937252 1.565081 1.011146 -2.872440 21.344094 1.397257 -0.000000 0.000001 -0.000003 1.018448 -17.762522 -13.948081 0.000000 0.000000 0.000000 -54.948520 31.110931 -6.401442 0.000015 -63.876155 0.000027 -4.464856 25.679761 91.531966 -18.670291 -12.711710 12.008136 5.774279 26.664888 7.374372 -10.020026 -14.017847 7.739307 0.000002 0.000001 0.000004 -0.116489 -6.945945 -4.735159 0.000000 -0.000002 -0.000000 0.000000 -0.000000 0.000000 0.099043 -2.456324 0.174813 0.068766 0.895937 -8.777859 0.000000 -0.000000 -0.000000 0.130629 1.056357 3.319752 0.099033 1.073783 -10.538692 -0.000000 -0.000000 -0.000000 -1.044795 17.734719 -1.989337 0.000102 0.035152 -0.342882 -0.000000 0.000001 -0.000000 0.087502 15.029543 -2.189413 0.000000 0.000000 0.000000 -41.233463 -44.225089 -18.026840 0.000012 50.705849 -0.000032 -45.900569 -5.841214 4.743224 -36.574195 16.692342 -23.457619 7.599068 -18.823603 -3.575203 -7.056231 3.101004 -14.195944 -0.000001 -0.000000 -0.000000 0.851644 4.315554 -1.292747 -0.000001 0.000003 -0.000001 -0.000001 0.000001 -0.000001 0.058150 -1.595189 -0.863744 0.000007 -0.002022 0.024744 0.000006 0.000001 0.000000 0.157392 -10.510738 0.433476 -0.000003 -0.000001 0.000004 0.000001 -0.000001 0.000000 -0.418995 -17.815153 -1.782073 0.002465 -0.151897 1.865050 -0.000002 0.000002 -0.000002 -122.273473 -3.329866 6.101758 43.644277 1.529435 0.708044 23.461509 -10.062509 46.529998 -9.986177 -0.000013 -0.000013 -0.000003 -0.000001 -0.000000 -119.191118 -9.325549 -29.266363 119.639615 7.225124 -0.048119 12.150913 29.487491 18.147645 -36.627361 -0.000007 0.000002 -0.000000 0.000000 0.000000 
-126.788902 46.676003 -0.203880 8.056854 0.310692 -48.798754 25.004810 -5.597990 -11.461928 4.340297 -0.053017 -2.926363 0.000000 0.000000 0.000000 4.326360 0.001593 -3.071845 -1.907612 1.651349 1.046735 -3.037803 21.624685 2.047967 -0.000000 0.000000 -0.000000 1.528350 -17.124229 -13.055628 0.000000 0.000000 0.000000 -56.910963 30.147676 -5.988682 0.000002 -62.567313 0.000008 -3.977160 25.213358 91.843710 -18.669200 -12.711133 12.009919 5.772853 26.664183 7.377596 -10.020028 -14.017847 7.739307 -0.000001 0.000001 0.000003 -0.117043 -6.945158 -4.737039 0.000001 -0.000000 -0.000001 0.000000 -0.000000 0.000000 0.099136 -2.456103 0.175961 0.068793 0.896133 -8.779746 0.000000 0.000002 0.000001 0.130617 1.056955 3.321224 0.099118 1.074208 -10.543106 0.000000 0.000002 -0.000001 -1.045206 17.735015 -1.987828 0.000103 0.035118 -0.342612 -0.000001 -0.000001 0.000001 -0.280800 13.602712 -1.925104 0.000000 0.000000 0.000000 -41.602324 -46.076542 -18.868468 -0.000005 51.752125 0.000018 -44.235956 -6.396595 1.833497 -36.539040 16.608484 -23.425775 7.623761 -19.026501 -3.589664 -7.056233 3.101005 -14.195942 0.000001 0.000002 -0.000000 0.860237 4.387550 -1.164625 -0.000003 0.000001 0.000008 0.000001 -0.000001 -0.000001 0.058694 -1.500238 -0.784170 -0.000008 -0.002072 0.025533 -0.000005 -0.000002 0.000001 0.160485 -10.366415 0.475288 -0.000002 0.000003 0.000030 -0.000003 -0.000002 0.000000 -0.436651 -17.750863 -1.815764 0.002759 -0.160562 1.971427 -0.000001 -0.000001 0.000003 -127.901057 -4.363603 6.045800 54.560514 4.105410 -0.387875 20.220314 -9.345285 46.623138 -11.086843 0.000005 0.000008 0.000003 0.000000 0.000002 -116.063069 -13.548948 -28.432087 115.637042 6.589984 -0.107925 10.044345 28.792082 18.680639 -35.945510 -0.000003 -0.000016 -0.000000 0.000000 -0.000000 
